HIERARCHY
ROOT Hips
{
 OFFSET 0.000000 0.000000 0.000000
 CHANNELS 6 Xposition Yposition Zposition Zrotation Xrotation Yrotation
 JOINT Chest
 {
  OFFSET 0.000000 4.000000 0.000000
  CHANNELS 3 Zrotation Xrotation Yrotation
  JOINT Head
  {
   OFFSET 0.000000 24.803150 0.000000
   CHANNELS 3 Zrotation Xrotation Yrotation
   End Site
   {
    OFFSET 0.000000 9.448819 0.000000
   }
  }
  JOINT LeftUpArm
  {
   OFFSET 7.086614 23.228346 0.000000
   CHANNELS 3 Zrotation Xrotation Yrotation
   JOINT LeftLowArm
   {
    OFFSET 0.000000 -11.811024 0.000000
    CHANNELS 3 Zrotation Xrotation Yrotation
    End Site
    {
     OFFSET 0.000000 -11.811024 0.000000
    }
   }
  }
  JOINT RightUpArm
  {
   OFFSET -7.086614 23.228346 0.000000
   CHANNELS 3 Zrotation Xrotation Yrotation
   JOINT RightLowArm
   {
    OFFSET 0.000000 -11.811024 0.000000
    CHANNELS 3 Zrotation Xrotation Yrotation
    End Site
    {
     OFFSET 0.000000 -11.811024 0.000000
    }
   }
  }
 }
 JOINT LeftUpLeg
 {
  OFFSET 3.937008 0.000000 0.000000
  CHANNELS 3 Zrotation Xrotation Yrotation
  JOINT LeftLowLeg
  {
   OFFSET 0.000000 -16.929134 0.000000
   CHANNELS 3 Zrotation Xrotation Yrotation
   End Site
   {
    OFFSET 0.000000 -19.685040 0.000000
   }
  }
 }
 JOINT RightUpLeg
 {
  OFFSET -3.937008 0.000000 0.000000
  CHANNELS 3 Zrotation Xrotation Yrotation
  JOINT RightLowLeg
  {
   OFFSET 0.000000 -16.929134 0.000000
   CHANNELS 3 Zrotation Xrotation Yrotation
   End Site
   {
    OFFSET 0.000000 -19.685040 0.000000
   }
  }
 }
}
MOTION
Frames: 22      
Frame Time: 0.033333
-77.961365 1.283242 43.234718 0.577236 -2.526767 -93.741966 3.087539 6.635221 -4.819850 0.666012 1.736812 -35.951984 14.886119 -29.855652 -3.711400 0.319867 -12.884595 -11.909790 -12.001816 6.883773 -8.281682 -4.846225 10.650415 15.939686 1.801726 7.425968 7.855125 4.602396 24.945845 -14.202654 2.927933 -32.123318 -1.028565 -6.428793 22.788397 5.340111
-79.754387 1.335978 42.847988 0.149318 -2.372223 -93.205185 3.839580 6.856006 -4.746762 0.562766 1.827031 -35.077721 13.817604 -30.072411 -4.599894 0.302112 -13.635591 -12.168500 -12.328952 7.739666 -9.146589 -5.602435 12.994032 16.955101 3.240247 6.974889 9.937053 6.735825 32.288902 -17.037958 2.980437 -31.255585 -0.061526 -5.341063 25.549770 5.192213
-81.002472 1.274453 42.549149 -0.116592 -2.209183 -92.963150 4.505070 6.999693 -5.042107 0.589091 1.720684 -33.772324 13.069923 -29.844782 -4.773474 0.122416 -14.139149 -12.469487 -12.611356 8.121165 -8.853825 -5.994556 13.698326 17.499559 4.196502 5.455392 11.330164 9.288970 38.162579 -20.186171 3.185371 -30.376331 0.306883 -4.649101 28.294134 5.619091
-83.191017 1.476608 42.074528 -0.231525 -1.987454 -92.377800 5.175095 6.982448 -5.002551 1.165544 1.424845 -30.684389 11.660169 -28.550253 -5.680997 -0.357416 -14.452154 -13.336774 -12.490088 7.820829 -7.701826 -6.250385 14.356665 17.722269 5.177050 -0.961934 11.004247 14.415334 51.561520 -23.932993 3.645970 -28.067692 0.443292 -4.793787 31.024929 5.434699
-84.755516 1.757866 41.784477 -0.046311 -1.919786 -92.034485 5.351732 6.785437 -4.715045 1.617017 1.095012 -28.171932 10.568882 -27.111900 -6.594084 -0.481406 -14.670947 -14.097200 -12.310772 7.334689 -5.730688 -5.715821 13.406186 16.913725 5.084217 -5.805182 9.872554 17.571232 60.417728 -26.354378 3.828247 -26.618137 0.563036 -4.728087 32.146721 4.352708
-86.750694 2.320383 41.371380 0.435812 -2.304952 -91.627892 4.902114 6.656271 -4.509054 1.887184 0.634002 -23.204962 9.470738 -24.309521 -6.604078 -0.988819 -14.409744 -15.869544 -11.821034 4.978038 -2.037791 -3.566778 11.717991 15.769932 5.591027 -14.116433 6.254626 15.197872 71.278542 -23.492374 3.387396 -23.579336 -0.384147 -4.331954 31.149649 3.038706
-88.130623 2.803797 41.090122 0.943977 -2.579045 -91.527573 4.368603 6.391431 -4.013112 1.920561 0.749053 -19.997906 8.873494 -22.234005 -6.354115 -1.467116 -13.944490 -17.294352 -11.209260 3.116462 0.409994 -1.599097 10.690287 13.626194 6.069195 -18.544592 5.563180 10.002380 74.509216 -18.352118 3.103472 -21.192017 -0.346378 -3.570359 29.586016 1.565389
-89.255653 3.102634 40.764915 1.459872 -2.859712 -91.424110 3.941191 6.179078 -3.720397 1.538207 0.380948 -17.240263 8.463744 -20.466265 -5.684774 -1.848899 -13.205223 -18.262451 -10.753030 1.250603 2.352812 0.851419 9.136582 12.862666 6.502761 -22.652834 5.401752 5.828397 75.223007 -14.395061 2.682984 -19.272234 -0.622511 -3.056190 28.136017 0.862867
-91.444199 3.375103 40.299080 2.570640 -3.174964 -91.420753 3.136788 5.598838 -3.347607 0.841870 -0.155085 -12.576025 7.957366 -15.900824 -3.568833 -2.644646 -11.857374 -19.856600 -9.671277 -2.597557 6.565043 2.447721 2.881575 11.836878 6.400089 -29.688038 5.393865 -1.944550 71.167473 -6.061182 2.180775 -15.804803 -1.707965 -2.359078 25.472206 0.518901
-92.586807 3.419050 40.149662 2.978453 -3.234979 -91.540802 2.768449 5.467448 -3.146822 0.425294 -0.543334 -10.560782 7.676912 -13.501390 -2.260418 -2.975712 -10.815966 -20.388027 -9.089771 -4.559755 8.366078 2.514623 0.803135 9.697255 5.477889 -32.390354 5.062153 -4.090046 66.540054 -2.954328 2.173546 -13.924164 -2.357580 -2.244727 24.235020 0.707293
-94.564407 3.383892 40.052979 3.454573 -3.399045 -91.981079 2.015730 5.358674 -2.526959 -0.150327 -1.386978 -7.599079 6.841902 -9.172931 0.174484 -3.369402 -8.024728 -21.470245 -8.137085 -8.386908 11.822164 0.963755 -5.435030 5.968987 3.753682 -36.029358 3.253652 -7.692644 53.691811 2.972700 2.226122 -10.512359 -3.548684 -2.534761 22.582417 1.530876
-95.830070 3.260842 40.184818 3.500471 -3.412708 -92.401871 1.584561 5.461217 -2.105850 -0.336983 -1.707204 -6.034855 6.000001 -6.932567 1.846491 -3.097061 -5.557503 -22.060583 -7.508629 -10.590207 13.746087 0.985555 -7.981166 4.514167 3.194868 -37.354282 1.616727 -8.393888 45.447945 5.486600 2.384070 -8.226513 -4.126813 -2.997794 22.423851 2.235584
-97.939514 2.970794 40.114506 3.432289 -3.348819 -93.208267 0.999359 5.448185 -1.224363 -0.625710 -1.905701 -3.934970 4.752935 -3.344422 4.516051 -1.782757 -1.101865 -22.862436 -6.589703 -14.219672 16.982765 0.713179 -11.918603 2.150712 2.692727 -39.383465 -2.856036 -6.813825 33.545181 7.559768 2.779493 -4.121778 -5.266219 -3.675625 21.075624 4.173158
-99.328224 2.733482 40.149662 3.278117 -3.373897 -93.819839 0.590543 5.416724 -0.373448 -0.727911 -1.912708 -3.101724 4.125230 -1.518070 5.707628 -0.635869 1.625194 -22.600628 -6.067697 -16.089119 18.474606 0.426822 -13.146156 1.067298 2.614328 -39.786343 -4.778294 -4.754032 28.803354 7.467064 2.604846 -1.807979 -6.011425 -4.000377 21.376623 5.567803
-100.585098 2.399487 40.044189 2.846663 -3.247496 -94.202774 0.327715 5.434154 0.053048 -0.707407 -1.833306 -2.297181 3.612919 0.120048 7.000587 0.825796 3.790978 -22.260059 -5.572455 -17.419563 19.660217 0.129251 -14.154030 0.429407 2.754030 -39.423477 -5.209721 -2.903551 25.275806 6.146611 2.196358 0.365116 -7.182905 -4.117678 22.293159 6.707572
-103.292213 2.144597 40.202400 1.967672 -3.433822 -95.424606 -0.753722 5.316336 1.509389 -0.589265 -1.641378 -1.207130 3.361721 3.336574 9.423526 3.094918 6.779705 -21.366535 -4.891319 -18.757530 20.569372 -0.330807 -15.985556 0.141696 3.296147 -38.574379 -2.455060 -2.391368 23.694965 1.364061 0.655093 2.931828 -9.306528 -4.885650 27.002367 8.165874
-104.777611 2.039125 40.281502 1.329949 -3.581397 -95.876678 -1.345541 5.423942 1.951957 -0.546626 -1.697198 -0.657593 3.379560 4.718371 10.509857 4.056144 8.193921 -20.459164 -4.651408 -18.843086 20.474798 -0.404822 -16.733742 0.473199 2.659660 -36.986401 -1.288498 -2.724826 24.329977 -1.437566 -0.390925 3.166350 -10.067354 -5.999010 32.331348 8.195349
-107.475937 2.162175 40.474869 0.647843 -4.022814 -96.586334 -2.553102 5.402925 2.499154 -0.632762 -2.260874 0.690782 3.856322 5.852941 11.893921 5.130991 9.807655 -19.305786 -4.591447 -18.214830 19.481777 -0.078378 -17.804396 1.684494 1.081151 -34.391106 1.273277 -1.522740 28.880966 -6.965613 -1.274013 -0.157501 -11.686364 -12.335252 44.272873 11.633533
-108.750389 2.267647 40.518814 0.362726 -4.164602 -96.635422 -2.918591 5.485136 2.380769 -0.937844 -2.613803 1.505913 4.389614 5.946070 11.776048 5.120892 10.302323 -18.492290 -4.688623 -17.516962 18.727776 0.220754 -18.038971 2.664687 0.141462 -32.692554 1.882974 -0.372884 30.715408 -9.199162 -1.558285 -2.931138 -13.735823 -18.576345 51.394962 15.888052
-111.061981 2.584063 40.501236 0.229188 -4.212885 -96.322838 -3.027542 5.636312 1.893743 -1.503580 -3.055535 2.785031 5.683272 4.422166 9.941354 4.422361 10.029259 -17.803232 -5.267261 -16.078190 16.551537 0.788884 -17.289667 4.669882 -1.394125 -28.800974 0.907832 1.060833 32.466927 -8.781941 -2.095190 -8.751811 -17.310425 -33.881725 61.068211 27.966427
-111.097137 2.575274 40.510025 0.238431 -4.203233 -96.310493 -3.010865 5.627830 1.879829 -1.523017 -3.060372 2.791664 5.690908 4.397666 9.913754 4.423173 10.051462 -17.773733 -5.268992 -16.073492 16.508442 0.794734 -17.289463 4.703403 -1.417978 -28.763952 0.872823 1.084340 32.564899 -8.749207 -2.121882 -8.825882 -17.281828 -34.231392 61.287327 28.304031
-114.287666 3.225684 40.351818 0.723763 -3.756237 -94.630188 -2.039458 5.361527 0.343920 -2.050332 -2.767208 4.483427 7.958599 -0.315148 5.423733 1.267827 7.720324 -16.677761 -6.752618 -12.102421 11.797978 1.229687 -14.773269 7.596227 -2.051464 -22.774042 -0.318674 1.242192 30.892553 -6.945429 -3.232264 -19.749365 -18.885664 -50.283669 69.847260 40.369671
